<?xml version="1.0" encoding="UTF-8" standalone="no"?>
<!DOCTYPE svg PUBLIC "-//W3C//DTD SVG 1.1//EN"
 "http://www.w3.org/Graphics/SVG/1.1/DTD/svg11.dtd">
<!-- Generated by graphviz version 2.40.1 (20161225.0304)
 -->
<!-- Title: dependencies Pages: 1 -->
<svg width="504pt" height="284pt"
 viewBox="0.00 0.00 504.00 284.00" xmlns="http://www.w3.org/2000/svg" xmlns:xlink="http://www.w3.org/1999/xlink">
<g id="graph0" class="graph" transform="scale(1 1) rotate(0) translate(4 280)">
<title>dependencies</title>
<polygon fill="#ffffff" stroke="transparent" points="-4,4 -4,-280 500,-280 500,4 -4,4"/>
<text text-anchor="start" x="227.0091" y="-42.4" font-family="sans-serif" font-weight="bold" font-size="14.00" fill="#000000">Legend</text>
<polygon fill="#ffffb3" stroke="transparent" points="14,-10 14,-30 34,-30 34,-10 14,-10"/>
<text text-anchor="start" x="37.629" y="-15.4" font-family="sans-serif" font-size="14.00" fill="#000000"> &#160;Declarations</text>
<polygon fill="#8dd3c7" stroke="transparent" points="127,-10 127,-30 147,-30 147,-10 127,-10"/>
<text text-anchor="start" x="150.7251" y="-15.4" font-family="sans-serif" font-size="14.00" fill="#000000"> &#160;Module</text>
<polygon fill="#80b1d3" stroke="transparent" points="213,-10 213,-30 233,-30 233,-10 213,-10"/>
<text text-anchor="start" x="236.7812" y="-15.4" font-family="sans-serif" font-size="14.00" fill="#000000"> &#160;Bootstrap</text>
<polygon fill="#fdb462" stroke="transparent" points="310,-10 310,-30 330,-30 330,-10 310,-10"/>
<text text-anchor="start" x="333.6732" y="-15.4" font-family="sans-serif" font-size="14.00" fill="#000000"> &#160;Providers</text>
<polygon fill="#fb8072" stroke="transparent" points="406,-10 406,-30 426,-30 426,-10 406,-10"/>
<text text-anchor="start" x="429.7258" y="-15.4" font-family="sans-serif" font-size="14.00" fill="#000000"> &#160;Exports</text>
<g id="clust1" class="cluster">
<title>cluster_FileDropModule</title>
<polygon fill="none" stroke="#000000" stroke-dasharray="1,5" points="98,-70 98,-268 398,-268 398,-70 98,-70"/>
</g>
<g id="clust2" class="cluster">
<title>cluster_FileDropModule_declarations</title>
<polygon fill="none" stroke="#000000" points="242,-78 242,-130 390,-130 390,-78 242,-78"/>
</g>
<g id="clust4" class="cluster">
<title>cluster_FileDropModule_imports</title>
<polygon fill="none" stroke="#000000" points="106,-78 106,-130 234,-130 234,-78 106,-78"/>
</g>
<g id="clust5" class="cluster">
<title>cluster_FileDropModule_exports</title>
<polygon fill="none" stroke="#000000" points="172,-208 172,-260 324,-260 324,-208 172,-208"/>
</g>
<!-- FileInputComponent -->
<g id="node1" class="node">
<title>FileInputComponent</title>
<polygon fill="#ffffb3" stroke="#000000" points="382.1624,-122 249.8376,-122 249.8376,-86 382.1624,-86 382.1624,-122"/>
<text text-anchor="middle" x="316" y="-99.8" font-family="Times,serif" font-size="14.00" fill="#000000">FileInputComponent</text>
</g>
<!-- FileDropModule -->
<g id="node2" class="node">
<title>FileDropModule</title>
<polygon fill="#8dd3c7" stroke="#000000" points="303.0954,-187 300.0954,-191 279.0954,-191 276.0954,-187 192.9046,-187 192.9046,-151 303.0954,-151 303.0954,-187"/>
<text text-anchor="middle" x="248" y="-164.8" font-family="Times,serif" font-size="14.00" fill="#000000">FileDropModule</text>
</g>
<!-- FileInputComponent&#45;&gt;FileDropModule -->
<g id="edge1" class="edge">
<title>FileInputComponent&#45;&gt;FileDropModule</title>
<path fill="none" stroke="#000000" d="M276.3583,-122.1061C276.3583,-122.1061 276.3583,-140.991 276.3583,-140.991"/>
<polygon fill="#000000" stroke="#000000" points="272.8584,-140.9909 276.3583,-150.991 279.8584,-140.991 272.8584,-140.9909"/>
</g>
<!-- FileInputComponent  -->
<g id="node4" class="node">
<title>FileInputComponent </title>
<polygon fill="#fb8072" stroke="#000000" points="316.1621,-252 179.8379,-252 179.8379,-216 316.1621,-216 316.1621,-252"/>
<text text-anchor="middle" x="248" y="-229.8" font-family="Times,serif" font-size="14.00" fill="#000000">FileInputComponent </text>
</g>
<!-- FileDropModule&#45;&gt;FileInputComponent  -->
<g id="edge3" class="edge">
<title>FileDropModule&#45;&gt;FileInputComponent </title>
<path fill="none" stroke="#000000" stroke-dasharray="5,2" d="M248,-187.1061C248,-187.1061 248,-205.991 248,-205.991"/>
<polygon fill="#000000" stroke="#000000" points="244.5001,-205.9909 248,-215.991 251.5001,-205.991 244.5001,-205.9909"/>
</g>
<!-- CommonModule -->
<g id="node3" class="node">
<title>CommonModule</title>
<polygon fill="#8dd3c7" stroke="#000000" points="225.6681,-122 222.6681,-126 201.6681,-126 198.6681,-122 114.3319,-122 114.3319,-86 225.6681,-86 225.6681,-122"/>
<text text-anchor="middle" x="170" y="-99.8" font-family="Times,serif" font-size="14.00" fill="#000000">CommonModule</text>
</g>
<!-- CommonModule&#45;&gt;FileDropModule -->
<g id="edge2" class="edge">
<title>CommonModule&#45;&gt;FileDropModule</title>
<path fill="none" stroke="#000000" d="M209.3931,-122.1061C209.3931,-122.1061 209.3931,-140.991 209.3931,-140.991"/>
<polygon fill="#000000" stroke="#000000" points="205.8931,-140.9909 209.3931,-150.991 212.8931,-140.991 205.8931,-140.9909"/>
</g>
</g>
</svg>
